<svg xmlns="http://www.w3.org/2000/svg" width="2430" height="672" viewBox="0 0 2430 672">
  <g id="Symbols" transform="translate(-0.094 -0.025)">
    <g id="Navigation_white" transform="translate(0.094 0.025)">
      <g id="TechGig" transform="translate(0)">
        <path id="Fill-1" d="M110.206,84.037H.094V.452H361.279V83.47H247.849V637.785H110.206V84.037" transform="translate(-0.094 15.531)" fill="#1a497d" fill-rule="evenodd"/>
        <path id="Fill-2" d="M12.281.5V629.79h296.4V545.417H145.049V330.963h157.46V253.628H145.049V81.358H308.686V.507L12.281.5" transform="translate(388.977 17.216)" fill="#1a497d" fill-rule="evenodd"/>
        <path id="Fill-3" d="M34.505.69V633.505H167.267V327.644h73.914V633.505H377.216V.493H242.166V242.17l-74.9,1.1V.893L34.505.69" transform="translate(1098.495 17.023)" fill="#1a497d" fill-rule="evenodd"/>
        <path id="Fill-4" d="M234.307,252.923H368.35V150.655S383.48,21.961,249.43,2.428C178.841-3.139,40.212-7.909,22.663,96.648l2.008,472.272s.013,80.42,113.9,95.367l112.872,1.139s108.842-3.444,117.919-109.156L368.35,404.6l-134.043-2.3V560.226c0,33.244-71.165,36.2-75.59.644V100.105s-5.038-31.017,44.344-27.581c0,0,25.619-1.174,31.246,32.168Z" transform="translate(720.418 -0.025)" fill="#1a497d" fill-rule="evenodd"/>
        <path id="Fill-5" d="M57.938,635.693h136.6V.478H57.938Z" transform="translate(1846.589 16.507)" fill="#d7263d" fill-rule="evenodd"/>
        <path id="Fill-6" d="M392.978,252.906V106.635S385.293,21.61,280.02,5.36c0,0-36.192-10-116.237-2.5S54.125,71.625,48.64,96.63s0,467.591,0,467.591,3.286,73.769,97.594,100.024,162.309-43.755,162.309-43.755S320.6,631.743,320.6,646.743l72.373,5V334.18H201.065v78.764H258.1V557.975s1.087,32.513-42.773,32.513-32.9-52.523-32.9-52.523V104.126s8.771-30.005,42.767-26.255,35.1,31.264,35.1,31.264v145.03l132.69-1.259" transform="translate(1471.824 1.773)" fill="#d7263d" fill-rule="evenodd"/>
        <path id="Fill-7" d="M410.146,252.915V106.635S402.457,21.62,297.191,5.361c0,0-36.192-10-116.25-2.491S71.3,71.626,65.8,96.631s0,467.6,0,467.6,3.279,73.769,97.6,100.024S325.7,620.5,325.7,620.5s12.061,11.253,12.061,26.245l72.384,5.01V334.189H218.233v78.756h57.021V557.976s1.1,32.513-42.767,32.513S199.6,537.974,199.6,537.974V104.135s8.758-30.014,42.757-26.255,35.1,31.255,35.1,31.255V254.174l132.7-1.259" transform="translate(2019.855 1.858)" fill="#d7263d" fill-rule="evenodd"/>
      </g>
    </g>
  </g>
</svg>
